REM DIRINDEX 1\2,1\3,1\4,1\5
REM DIRNAME cjc005,folder01,folder02,folder03,folder04
TITLE ""
FILE "P1Q_t_1392-1401.mp3" MP3
  TRACK 01 AUDIO
    TITLE "3:cjc005_5083"
    INDEX 01 00:00:00
  TRACK 02 AUDIO
    TITLE "0:"
    INDEX 01 00:00:72
  TRACK 03 AUDIO
    TITLE "4:cjc005_5084"
    INDEX 01 00:01:26
  TRACK 04 AUDIO
    TITLE "0:"
    INDEX 01 00:02:36
  TRACK 05 AUDIO
    TITLE "5:cjc005_5085"
    INDEX 01 00:02:57
  TRACK 06 AUDIO
    TITLE "0:"
    INDEX 01 00:07:21
  TRACK 07 AUDIO
    TITLE "3:cjc005_5086"
    INDEX 01 00:07:74
  TRACK 08 AUDIO
    TITLE "0:"
    INDEX 01 00:09:16
  TRACK 09 AUDIO
    TITLE "4:cjc005_5087"
    INDEX 01 00:09:38
  TRACK 10 AUDIO
    TITLE "0:"
    INDEX 01 00:10:51
  TRACK 11 AUDIO
    TITLE "5:cjc005_5088"
    INDEX 01 00:11:01
  TRACK 12 AUDIO
    TITLE "0:"
    INDEX 01 00:15:25
  TRACK 13 AUDIO
    TITLE "3:cjc005_5089"
    INDEX 01 00:15:72
  TRACK 14 AUDIO
    TITLE "0:"
    INDEX 01 00:17:12
  TRACK 15 AUDIO
    TITLE "4:cjc005_5090"
    INDEX 01 00:17:35
  TRACK 16 AUDIO
    TITLE "0:"
    INDEX 01 00:18:46
  TRACK 17 AUDIO
    TITLE "5:cjc005_5091"
    INDEX 01 00:18:70
  TRACK 18 AUDIO
    TITLE "0:"
    INDEX 01 00:23:69
  TRACK 19 AUDIO
    TITLE "3:cjc005_5092"
    INDEX 01 00:24:49
  TRACK 20 AUDIO
    TITLE "0:"
    INDEX 01 00:25:72
  TRACK 21 AUDIO
    TITLE "4:cjc005_5093"
    INDEX 01 00:26:32
  TRACK 22 AUDIO
    TITLE "0:"
    INDEX 01 00:27:34
  TRACK 23 AUDIO
    TITLE "5:cjc005_5094"
    INDEX 01 00:27:57
  TRACK 24 AUDIO
    TITLE "0:"
    INDEX 01 00:30:55
  TRACK 25 AUDIO
    TITLE "3:cjc005_5095"
    INDEX 01 00:31:31
  TRACK 26 AUDIO
    TITLE "0:"
    INDEX 01 00:32:45
  TRACK 27 AUDIO
    TITLE "4:cjc005_5096"
    INDEX 01 00:32:70
  TRACK 28 AUDIO
    TITLE "0:"
    INDEX 01 00:34:55
  TRACK 29 AUDIO
    TITLE "5:cjc005_5097"
    INDEX 01 00:35:02
  TRACK 30 AUDIO
    TITLE "0:"
    INDEX 01 00:37:69
  TRACK 31 AUDIO
    TITLE "3:cjc005_5098"
    INDEX 01 00:38:47
  TRACK 32 AUDIO
    TITLE "0:"
    INDEX 01 00:39:64
  TRACK 33 AUDIO
    TITLE "4:cjc005_5099"
    INDEX 01 00:40:17
  TRACK 34 AUDIO
    TITLE "0:"
    INDEX 01 00:41:18
  TRACK 35 AUDIO
    TITLE "5:cjc005_5100"
    INDEX 01 00:41:42
  TRACK 36 AUDIO
    TITLE "0:"
    INDEX 01 00:46:19
  TRACK 37 AUDIO
    TITLE "3:cjc005_5101"
    INDEX 01 00:46:66
  TRACK 38 AUDIO
    TITLE "0:"
    INDEX 01 00:48:06
  TRACK 39 AUDIO
    TITLE "4:cjc005_5102"
    INDEX 01 00:48:28
  TRACK 40 AUDIO
    TITLE "0:"
    INDEX 01 00:50:03
  TRACK 41 AUDIO
    TITLE "5:cjc005_5103"
    INDEX 01 00:50:25
  TRACK 42 AUDIO
    TITLE "0:"
    INDEX 01 00:54:42
  TRACK 43 AUDIO
    TITLE "3:cjc005_5104"
    INDEX 01 00:55:14
  TRACK 44 AUDIO
    TITLE "0:"
    INDEX 01 00:56:43
  TRACK 45 AUDIO
    TITLE "4:cjc005_5105"
    INDEX 01 00:56:65
  TRACK 46 AUDIO
    TITLE "0:"
    INDEX 01 00:58:01
  TRACK 47 AUDIO
    TITLE "5:cjc005_5106"
    INDEX 01 00:58:22
  TRACK 48 AUDIO
    TITLE "0:"
    INDEX 01 01:02:46
  TRACK 49 AUDIO
    TITLE "3:cjc005_5107"
    INDEX 01 01:03:18
  TRACK 50 AUDIO
    TITLE "0:"
    INDEX 01 01:04:27
  TRACK 51 AUDIO
    TITLE "4:cjc005_5108"
    INDEX 01 01:04:50
  TRACK 52 AUDIO
    TITLE "0:"
    INDEX 01 01:05:54
  TRACK 53 AUDIO
    TITLE "5:cjc005_5109"
    INDEX 01 01:06:00
  TRACK 54 AUDIO
    TITLE "0:"
    INDEX 01 01:10:33
  TRACK 55 AUDIO
    TITLE "3:cjc005_5110"
    INDEX 01 01:11:05
  TRACK 56 AUDIO
    TITLE "0:"
    INDEX 01 01:12:23
  TRACK 57 AUDIO
    TITLE "4:cjc005_5111"
    INDEX 01 01:12:40
  TRACK 58 AUDIO
    TITLE "0:"
    INDEX 01 01:14:12
  TRACK 59 AUDIO
    TITLE "5:cjc005_5112"
    INDEX 01 01:14:33
  TRACK 60 AUDIO
    TITLE "0:"
    INDEX 01 01:19:07
